<svg width="400" height="400" viewBox="0 0 400 400" fill="none" xmlns="http://www.w3.org/2000/svg">
<rect width="400" height="400" fill="white"/>
<path d="M202.502 121.338L235.744 81L289.856 125.312L284.16 131.03L293.416 157.474L267.072 181.06L220.08 126.742L197.975 126.832L202.502 121.338Z" fill="black"/>
<path d="M123.248 217.511L155.889 177.901L264.936 309.709L257.104 319H197.975L155.889 267.541L139.569 293.27L131.408 306.135L137.488 319H123.248H67V277.547L111.144 217.511H123.248Z" fill="black"/>
<path d="M288.422 319H326.88L334 277.547L214.929 135.941L190.452 135.961L163.021 169.247L281.312 311.138L274.192 319H288.422Z" fill="black"/>
<path d="M202.502 121.338L235.744 81L289.856 125.312L284.16 131.03L293.416 157.474L267.072 181.06L220.08 126.742L197.975 126.832L202.502 121.338Z" stroke="black"/>
<path d="M123.248 217.511L155.889 177.901L264.936 309.709L257.104 319H197.975L155.889 267.541L139.569 293.27L131.408 306.135L137.488 319H123.248H67V277.547L111.144 217.511H123.248Z" stroke="black"/>
<path d="M288.422 319H326.88L334 277.547L214.929 135.941L190.452 135.961L163.021 169.247L281.312 311.138L274.192 319H288.422Z" stroke="black"/>
</svg>
